<svg width="1024" height="1024" viewBox="0 0 1024 1024" fill="none" xmlns="http://www.w3.org/2000/svg">
  <!-- Background -->
  <rect width="1024" height="1024" fill="#2F2FD3"/>

  <!-- Jupitrr logo centered with padding -->
  <g transform="translate(212, 212) scale(25)">
    <path fill-rule="evenodd" clip-rule="evenodd" d="M10.5947 17.291C10.3822 17.0484 10.2908 16.7077 10.3806 16.3726C10.5236 15.8389 11.0715 15.5227 11.6052 15.6657L19.1479 17.687C19.6076 17.1113 19.9983 16.4734 20.3085 15.78L20.1798 15.7455C19.8744 16.414 19.4937 17.0305 19.0483 17.588L11.5056 15.5668C10.9719 15.4238 10.424 15.7403 10.281 16.2739C10.1782 16.6573 10.3128 17.0483 10.5947 17.291ZM17.3002 19.2619C15.1783 20.8103 12.4009 21.4222 9.67181 20.6911C8.13017 20.278 6.78905 19.4863 5.7217 18.4427C6.80473 19.5351 8.18141 20.364 9.77144 20.79C12.5313 21.5294 15.3407 20.8953 17.4714 19.3077L17.3002 19.2619ZM9.49243 6.62575C9.36645 6.48187 9.19786 6.3725 8.99915 6.31926L5.97658 5.50943C5.95646 5.52804 5.93641 5.54675 5.91646 5.56556L9.09878 6.4182C9.24901 6.45838 9.38203 6.53068 9.49243 6.62575ZM14.5672 14.0667C14.5244 14.0177 14.4866 13.9647 14.4543 13.9087C14.3268 13.6882 14.2831 13.4175 14.3548 13.1498C14.4976 12.6161 15.0457 12.2997 15.5794 12.4426L20.918 13.873C21.538 10.7994 20.4963 7.72403 18.3695 5.64852C20.4291 7.72217 21.4286 10.7491 20.8183 13.7743L15.4798 12.3437C14.9461 12.201 14.3982 12.5172 14.2552 13.0509C14.1835 13.3186 14.2272 13.5893 14.3547 13.8098C14.4102 13.9059 14.4818 13.9931 14.5672 14.0667ZM0.411809 8.89353C2.12633 2.49513 8.70546 -1.30337 15.1061 0.411905C21.5045 2.12618 25.303 8.70505 23.5885 15.1037C21.8735 21.5044 15.2943 25.3031 8.89593 23.5883C2.49503 21.8733 -1.30321 15.2944 0.411809 8.89353ZM1.95914 9.38311C3.45744 3.7911 9.22517 0.46104 14.8172 1.95934C20.4069 3.45714 23.7367 9.22488 22.2384 14.8171C20.7409 20.4066 14.9729 23.7365 9.3834 22.2389C3.79139 20.7403 0.461334 14.9729 1.95914 9.38311Z" fill="white"/>
    <path fill-rule="evenodd" clip-rule="evenodd" d="M14.9712 14.2796L20.218 15.6854C19.9081 16.3788 19.5171 17.0167 19.0574 17.5924L11.5147 15.5711C10.981 15.4284 10.4331 15.7446 10.2901 16.2783C10.1471 16.8117 10.4633 17.3597 10.997 17.5029L17.3809 19.2134C15.2502 20.8007 12.4406 21.4349 9.68093 20.6955C4.88832 19.4111 2.0337 14.467 3.31703 9.67667C3.56175 8.76404 3.9397 7.92315 4.42238 7.16501L8.49084 8.25511C9.02427 8.39809 9.57245 8.08163 9.71543 7.54795C9.85841 7.01453 9.54195 6.4666 9.00852 6.32362L5.8262 5.47098C8.0244 3.39975 11.2115 2.47563 14.3383 3.31352C18.9452 4.54785 21.7581 9.16524 20.8275 13.7784L15.4889 12.3478C14.9552 12.2051 14.4073 12.5215 14.2643 13.0552C14.1926 13.3232 14.2366 13.5937 14.3636 13.8141C14.491 14.0346 14.7033 14.2078 14.9712 14.2796" fill="white"/>
  </g>
</svg>
